# xmcd
#
# Track frame offsets: 
#        150
#        22466
#        40830
#        65293
#        79815
#        100216
#        131393
#        144813
#        169445
#        187428
#        211134
#
# Disc length: 3067 seconds
#
# Revision: 0
# Processed by: cddbd v1.5.2PL0 Copyright (c) Steve Scherf et al.
# Submitted via: ExactAudioCopy v1.2
#
DISCID=9f0bf90b
DTITLE=Norman Jackson Band - It's the Drummer's Fault!
DYEAR=2017
DGENRE=Blues
TTITLE0=Norman's Blues
TTITLE1=Givin' Up
TTITLE2=Man of My House
TTITLE3=Healthy Woman
TTITLE4=All Alone
TTITLE5=Grandmama Says
TTITLE6=Water Faucet
TTITLE7=When You Came into My Life
TTITLE8=Old Time Way
TTITLE9=Greene County Blues
TTITLE10=Snake in My House
EXTD=
EXTT0=
EXTT1=
EXTT2=
EXTT3=
EXTT4=
EXTT5=
EXTT6=
EXTT7=
EXTT8=
EXTT9=
EXTT10=
PLAYORDER=
